<svg width="46" height="14" viewBox="0 0 46 14" fill="none" xmlns="http://www.w3.org/2000/svg">
<g filter="url(#filter0_i_9_2)">
<path d="M7.61193 10.7819C7.53726 10.7819 7.47193 10.7492 7.41593 10.6839L3.18793 5.44791L3.63593 4.99991L7.86393 10.2919C7.9106 10.3572 7.93393 10.4226 7.93393 10.4879C7.93393 10.5999 7.89193 10.6746 7.80793 10.7119C7.73326 10.7586 7.66793 10.7819 7.61193 10.7819ZM7.35993 0.967914C7.4346 0.967914 7.49993 0.995913 7.55593 1.05191C7.61193 1.10791 7.63993 1.17325 7.63993 1.24791C7.63993 1.32258 7.61193 1.38791 7.55593 1.44391L1.03193 7.51991L0.90593 6.91791L7.16393 1.05191C7.21993 0.995913 7.28526 0.967914 7.35993 0.967914ZM0.82193 10.7119C0.728596 10.7119 0.65393 10.6839 0.59793 10.6279C0.551263 10.5719 0.52793 10.5019 0.52793 10.4179V1.20591C0.52793 1.12191 0.55593 1.05191 0.61193 0.995914C0.66793 0.939914 0.73793 0.911913 0.82193 0.911913C0.90593 0.911913 0.97593 0.939914 1.03193 0.995914C1.08793 1.05191 1.11593 1.12191 1.11593 1.20591V10.4179C1.1066 10.5019 1.07393 10.5719 1.01793 10.6279C0.96193 10.6839 0.896596 10.7119 0.82193 10.7119ZM16.0001 7.18391C16.0001 7.87458 15.8508 8.49991 15.5521 9.05991C15.2535 9.61058 14.8428 10.0492 14.3201 10.3759C13.8068 10.6932 13.2188 10.8519 12.5561 10.8519C11.9028 10.8519 11.3148 10.6932 10.7921 10.3759C10.2695 10.0492 9.85412 9.61058 9.54612 9.05991C9.24745 8.49991 9.09812 7.87458 9.09812 7.18391C9.09812 6.48391 9.24745 5.85858 9.54612 5.30791C9.85412 4.74791 10.2695 4.30925 10.7921 3.99191C11.3148 3.66525 11.9028 3.50191 12.5561 3.50191C13.2188 3.50191 13.8068 3.66525 14.3201 3.99191C14.8428 4.30925 15.2535 4.74791 15.5521 5.30791C15.8508 5.85858 16.0001 6.48391 16.0001 7.18391ZM15.4401 7.18391C15.4401 6.57725 15.3141 6.04058 15.0621 5.57391C14.8195 5.09791 14.4788 4.72458 14.0401 4.45391C13.6108 4.17391 13.1161 4.03391 12.5561 4.03391C12.0055 4.03391 11.5108 4.17391 11.0721 4.45391C10.6335 4.72458 10.2881 5.09791 10.0361 5.57391C9.78412 6.04058 9.65812 6.57725 9.65812 7.18391C9.65812 7.78125 9.78412 8.31791 10.0361 8.79391C10.2881 9.26058 10.6335 9.63391 11.0721 9.91391C11.5108 10.1846 12.0055 10.3199 12.5561 10.3199C13.1161 10.3199 13.6108 10.1846 14.0401 9.91391C14.4788 9.63391 14.8195 9.26058 15.0621 8.79391C15.3141 8.31791 15.4401 7.78125 15.4401 7.18391ZM23.1636 3.72591C23.2476 3.72591 23.313 3.75391 23.3596 3.80991C23.4156 3.86591 23.4436 3.93125 23.4436 4.00591V8.07991C23.4436 8.98525 23.187 9.66658 22.6736 10.1239C22.1696 10.5719 21.4976 10.7959 20.6576 10.7959C19.827 10.7959 19.155 10.5719 18.6416 10.1239C18.1376 9.66658 17.8856 8.98525 17.8856 8.07991V4.00591C17.8856 3.93125 17.9136 3.86591 17.9696 3.80991C18.0256 3.75391 18.091 3.72591 18.1656 3.72591C18.2496 3.72591 18.315 3.75391 18.3616 3.80991C18.4176 3.86591 18.4456 3.93125 18.4456 4.00591V8.07991C18.4456 8.78925 18.6416 9.33058 19.0336 9.70391C19.435 10.0772 19.9763 10.2639 20.6576 10.2639C21.3483 10.2639 21.8896 10.0772 22.2816 9.70391C22.683 9.33058 22.8836 8.78925 22.8836 8.07991V4.00591C22.8836 3.93125 22.907 3.86591 22.9536 3.80991C23.0096 3.75391 23.0796 3.72591 23.1636 3.72591ZM29.0223 3.64191C29.6476 3.64191 30.203 3.79591 30.6883 4.10391C31.1736 4.41191 31.5563 4.83658 31.8363 5.37791C32.1256 5.90991 32.2703 6.52125 32.2703 7.21191C32.2703 7.89325 32.1256 8.50458 31.8363 9.04591C31.5563 9.58725 31.169 10.0166 30.6743 10.3339C30.189 10.6419 29.6383 10.7959 29.0223 10.7959C28.7143 10.7959 28.4156 10.7539 28.1263 10.6699C27.8463 10.5766 27.585 10.4506 27.3423 10.2919C27.0996 10.1239 26.8756 9.91858 26.6703 9.67591C26.4743 9.43325 26.3016 9.15791 26.1523 8.84991L26.3343 8.65391V13.2319C26.3343 13.3066 26.3063 13.3719 26.2503 13.4279C26.2036 13.4839 26.1383 13.5119 26.0543 13.5119C25.9796 13.5119 25.9143 13.4839 25.8583 13.4279C25.8023 13.3719 25.7743 13.3066 25.7743 13.2319V3.92191C25.7743 3.84725 25.7976 3.78191 25.8443 3.72591C25.9003 3.66991 25.9703 3.64191 26.0543 3.64191C26.1383 3.64191 26.2036 3.66991 26.2503 3.72591C26.3063 3.78191 26.3343 3.84725 26.3343 3.92191V5.71391L26.1523 5.61591C26.283 5.27058 26.4463 4.97191 26.6423 4.71991C26.8383 4.46791 27.0623 4.26258 27.3143 4.10391C27.5663 3.94525 27.837 3.82858 28.1263 3.75391C28.4156 3.67925 28.7143 3.64191 29.0223 3.64191ZM28.9943 4.17391C28.4623 4.17391 27.991 4.30458 27.5803 4.56591C27.179 4.82725 26.8616 5.18658 26.6283 5.64391C26.395 6.09191 26.2783 6.61458 26.2783 7.21191C26.2783 7.79991 26.395 8.32725 26.6283 8.79391C26.8616 9.25125 27.179 9.61058 27.5803 9.87191C27.991 10.1332 28.4623 10.2639 28.9943 10.2639C29.517 10.2639 29.979 10.1332 30.3803 9.87191C30.791 9.61058 31.113 9.25125 31.3463 8.79391C31.589 8.32725 31.7103 7.79991 31.7103 7.21191C31.7103 6.62391 31.589 6.10125 31.3463 5.64391C31.113 5.18658 30.791 4.82725 30.3803 4.56591C29.979 4.30458 29.517 4.17391 28.9943 4.17391ZM34.7852 10.4319C34.7852 10.5066 34.7572 10.5719 34.7012 10.6279C34.6452 10.6839 34.5798 10.7119 34.5052 10.7119C34.4212 10.7119 34.3512 10.6839 34.2952 10.6279C34.2485 10.5719 34.2252 10.5066 34.2252 10.4319V0.631914C34.2252 0.557247 34.2532 0.491914 34.3092 0.435914C34.3652 0.379914 34.4305 0.351914 34.5052 0.351914C34.5892 0.351914 34.6545 0.379914 34.7012 0.435914C34.7572 0.491914 34.7852 0.557247 34.7852 0.631914V10.4319ZM40.1899 10.8519C39.4899 10.8519 38.8693 10.7026 38.3279 10.4039C37.7959 10.1052 37.3759 9.68525 37.0679 9.14391C36.7599 8.59325 36.6059 7.94925 36.6059 7.21191C36.6059 6.42791 36.7553 5.76058 37.0539 5.20991C37.3619 4.65925 37.7539 4.23925 38.2299 3.94991C38.7153 3.65125 39.2286 3.50191 39.7699 3.50191C40.1619 3.50191 40.5446 3.56725 40.9179 3.69791C41.2913 3.81925 41.6226 4.01525 41.9119 4.28591C42.2106 4.54725 42.4486 4.87858 42.6259 5.27991C42.8126 5.67191 42.9153 6.14325 42.9339 6.69391C42.9339 6.76858 42.9059 6.83858 42.8499 6.90391C42.7939 6.95991 42.7286 6.98791 42.6539 6.98791H36.9419L36.8579 6.45591H42.4999L42.3599 6.58191V6.32991C42.3133 5.83525 42.1546 5.41991 41.8839 5.08391C41.6226 4.74791 41.3053 4.49591 40.9319 4.32791C40.5586 4.15058 40.1713 4.06191 39.7699 4.06191C39.4899 4.06191 39.1959 4.12725 38.8879 4.25791C38.5799 4.37925 38.2953 4.57058 38.0339 4.83191C37.7726 5.08391 37.5579 5.40591 37.3899 5.79791C37.2313 6.18991 37.1519 6.64725 37.1519 7.16991C37.1519 7.73925 37.2639 8.26191 37.4879 8.73791C37.7213 9.21391 38.0619 9.59658 38.5099 9.88591C38.9673 10.1752 39.5273 10.3199 40.1899 10.3199C40.5073 10.3199 40.8059 10.2686 41.0859 10.1659C41.3659 10.0539 41.6179 9.90925 41.8419 9.73191C42.0659 9.55458 42.2479 9.36325 42.3879 9.15791C42.4626 9.07391 42.5419 9.03191 42.6259 9.03191C42.6913 9.03191 42.7473 9.05991 42.7939 9.11591C42.8406 9.16258 42.8639 9.21858 42.8639 9.28391C42.8639 9.34925 42.8453 9.40525 42.8079 9.45191C42.5186 9.82525 42.1453 10.1519 41.6879 10.4319C41.2399 10.7119 40.7406 10.8519 40.1899 10.8519ZM44.7352 10.7119C44.6139 10.7119 44.5206 10.6699 44.4552 10.5859C44.3899 10.5019 44.3572 10.3992 44.3572 10.2779V9.95591C44.3572 9.82525 44.3899 9.72258 44.4552 9.64791C44.5206 9.56391 44.6139 9.52191 44.7352 9.52191H44.7912C44.9219 9.52191 45.0152 9.56391 45.0712 9.64791C45.1366 9.72258 45.1692 9.82525 45.1692 9.95591V10.2779C45.1692 10.3992 45.1366 10.5019 45.0712 10.5859C45.0152 10.6699 44.9219 10.7119 44.7912 10.7119H44.7352Z" fill="#3784FB"/>
</g>
<path d="M7.41593 10.6839L7.02692 10.998L7.03153 11.0037L7.0363 11.0093L7.41593 10.6839ZM3.18793 5.44791L2.83438 5.09436L2.51648 5.41226L2.79892 5.76203L3.18793 5.44791ZM3.63593 4.99991L4.02657 4.68782L3.67765 4.25109L3.28238 4.64636L3.63593 4.99991ZM7.86393 10.2919L8.2708 10.0013L8.26297 9.99034L8.25457 9.97982L7.86393 10.2919ZM7.80793 10.7119L7.60486 10.255L7.57274 10.2693L7.54293 10.2879L7.80793 10.7119ZM7.55593 1.05191L7.90949 0.698362L7.90948 0.698358L7.55593 1.05191ZM7.55593 1.44391L7.8967 1.80981L7.9032 1.80375L7.90948 1.79747L7.55593 1.44391ZM1.03193 7.51991L0.542534 7.62235L0.724107 8.48986L1.3727 7.88581L1.03193 7.51991ZM0.90593 6.91791L0.563986 6.55312L0.358966 6.7453L0.416534 7.02035L0.90593 6.91791ZM7.16393 1.05191L7.50587 1.41671L7.51177 1.41118L7.51748 1.40547L7.16393 1.05191ZM0.59793 10.6279L0.213819 10.948L0.228339 10.9654L0.244376 10.9815L0.59793 10.6279ZM0.61193 0.995914L0.965483 1.34947L0.965484 1.34947L0.61193 0.995914ZM1.03193 0.995914L0.678375 1.34947L0.678377 1.34947L1.03193 0.995914ZM1.11593 10.4179L1.61287 10.4731L1.61593 10.4456V10.4179H1.11593ZM7.61193 10.2819C7.65043 10.2819 7.6922 10.291 7.73054 10.3102C7.7671 10.3285 7.78779 10.3495 7.79556 10.3585L7.0363 11.0093C7.1712 11.1667 7.36826 11.2819 7.61193 11.2819V10.2819ZM7.80494 10.3698L3.57694 5.13379L2.79892 5.76203L7.02692 10.998L7.80494 10.3698ZM3.54148 5.80147L3.98948 5.35347L3.28238 4.64636L2.83438 5.09436L3.54148 5.80147ZM3.24529 5.31201L7.47329 10.604L8.25457 9.97982L4.02657 4.68782L3.24529 5.31201ZM7.45706 10.5825C7.45762 10.5833 7.45168 10.5752 7.44556 10.5581C7.43915 10.5401 7.43393 10.516 7.43393 10.4879H8.43393C8.43393 10.2965 8.36396 10.1317 8.2708 10.0013L7.45706 10.5825ZM7.43393 10.4879C7.43393 10.4837 7.43455 10.4398 7.46664 10.3828C7.50235 10.3193 7.55614 10.2767 7.60486 10.255L8.011 11.1688C8.14372 11.1098 8.26051 11.0112 8.33822 10.873C8.41231 10.7413 8.43393 10.6041 8.43393 10.4879H7.43393ZM7.54293 10.2879C7.52836 10.297 7.52593 10.2967 7.53476 10.2935C7.54367 10.2904 7.57079 10.2819 7.61193 10.2819V11.2819C7.8009 11.2819 7.96041 11.2062 8.07293 11.1359L7.54293 10.2879ZM7.35993 1.46791C7.33303 1.46791 7.30066 1.4625 7.26797 1.44849C7.23586 1.43472 7.21423 1.41732 7.20238 1.40547L7.90948 0.698358C7.76603 0.554904 7.57587 0.467914 7.35993 0.467914V1.46791ZM7.20238 1.40546C7.19052 1.39361 7.17312 1.37199 7.15936 1.33987C7.14535 1.30718 7.13993 1.27481 7.13993 1.24791H8.13993C8.13993 1.03197 8.05294 0.841817 7.90949 0.698362L7.20238 1.40546ZM7.13993 1.24791C7.13993 1.22101 7.14535 1.18865 7.15936 1.15595C7.17312 1.12384 7.19053 1.10221 7.20238 1.09036L7.90948 1.79747C8.05294 1.65401 8.13993 1.46386 8.13993 1.24791H7.13993ZM7.21516 1.07802L0.691163 7.15402L1.3727 7.88581L7.8967 1.80981L7.21516 1.07802ZM1.52133 7.41748L1.39533 6.81548L0.416534 7.02035L0.542534 7.62235L1.52133 7.41748ZM1.24787 7.28271L7.50587 1.41671L6.82199 0.687119L0.563986 6.55312L1.24787 7.28271ZM7.51748 1.40547C7.50563 1.41732 7.484 1.43472 7.45189 1.44849C7.4192 1.4625 7.38683 1.46791 7.35993 1.46791V0.467914C7.14399 0.467914 6.95383 0.554905 6.81038 0.698358L7.51748 1.40547ZM0.82193 10.2119C0.825195 10.2119 0.844009 10.2124 0.871491 10.2227C0.900511 10.2336 0.928653 10.2515 0.951483 10.2744L0.244376 10.9815C0.410744 11.1478 0.621469 11.2119 0.82193 11.2119V10.2119ZM0.98204 10.3078C0.999116 10.3283 1.01197 10.3519 1.01977 10.3753C1.02727 10.3978 1.02793 10.4135 1.02793 10.4179H0.0279297C0.0279297 10.6001 0.0810556 10.7887 0.213819 10.948L0.98204 10.3078ZM1.02793 10.4179V1.20591H0.0279297V10.4179H1.02793ZM1.02793 1.20591C1.02793 1.22027 1.02534 1.24567 1.01317 1.27611C1.00076 1.30713 0.982903 1.33205 0.965483 1.34947L0.258377 0.64236C0.102479 0.798258 0.0279297 0.998233 0.0279297 1.20591H1.02793ZM0.965484 1.34947C0.948064 1.36689 0.923149 1.38474 0.892126 1.39715C0.861687 1.40933 0.836289 1.41191 0.82193 1.41191V0.411913C0.614248 0.411913 0.414273 0.486463 0.258375 0.642362L0.965484 1.34947ZM0.82193 1.41191C0.807571 1.41191 0.782172 1.40933 0.751733 1.39715C0.720711 1.38474 0.695795 1.36689 0.678375 1.34947L1.38548 0.642362C1.22959 0.486463 1.02961 0.411913 0.82193 0.411913V1.41191ZM0.678377 1.34947C0.660956 1.33205 0.6431 1.30713 0.630691 1.27611C0.618516 1.24567 0.61593 1.22027 0.61593 1.20591H1.61593C1.61593 0.998233 1.54138 0.798258 1.38548 0.64236L0.678377 1.34947ZM0.61593 1.20591V10.4179H1.61593V1.20591H0.61593ZM0.618988 10.3627C0.61977 10.3557 0.622582 10.3407 0.631338 10.322C0.640273 10.3028 0.652226 10.2865 0.664376 10.2744L1.37148 10.9815C1.51337 10.8396 1.5919 10.6618 1.61287 10.4731L0.618988 10.3627ZM0.664376 10.2744C0.676228 10.2625 0.697856 10.2451 0.72997 10.2313C0.762662 10.2173 0.795029 10.2119 0.82193 10.2119V11.2119C1.03787 11.2119 1.22803 11.1249 1.37148 10.9815L0.664376 10.2744ZM15.5521 9.05991L15.9916 9.2983L15.9933 9.29521L15.5521 9.05991ZM14.3201 10.3759L14.583 10.8012L14.5851 10.7999L14.3201 10.3759ZM10.7921 10.3759L10.5271 10.7999L10.5326 10.8033L10.7921 10.3759ZM9.54612 9.05991L9.10485 9.29526L9.10974 9.30399L9.54612 9.05991ZM9.54612 5.30791L9.108 5.06695L9.1066 5.06953L9.54612 5.30791ZM10.7921 3.99191L11.0516 4.41934L11.0571 4.41591L10.7921 3.99191ZM14.3201 3.99191L14.0516 4.41384L14.0606 4.41931L14.3201 3.99191ZM15.5521 5.30791L15.1109 5.54321L15.1126 5.5463L15.5521 5.30791ZM15.0621 5.57391L14.6165 5.80107L14.6222 5.81149L15.0621 5.57391ZM14.0401 4.45391L13.7669 4.87285L13.7776 4.87943L14.0401 4.45391ZM11.0721 4.45391L11.3347 4.87948L11.3411 4.87537L11.0721 4.45391ZM10.0361 5.57391L10.4761 5.8115L10.478 5.80786L10.0361 5.57391ZM10.0361 8.79391L9.59421 9.02787L9.59616 9.03149L10.0361 8.79391ZM11.0721 9.91391L10.8031 10.3354L10.8096 10.3394L11.0721 9.91391ZM14.0401 9.91391L14.3068 10.3369L14.3091 10.3354L14.0401 9.91391ZM15.0621 8.79391L14.6202 8.55996L14.6185 8.56324L15.0621 8.79391ZM15.5001 7.18391C15.5001 7.79992 15.3676 8.3433 15.1109 8.82462L15.9933 9.29521C16.3339 8.65652 16.5001 7.94924 16.5001 7.18391H15.5001ZM15.1126 8.82153C14.8544 9.2976 14.5033 9.67179 14.0551 9.95191L14.5851 10.7999C15.1823 10.4267 15.6525 9.92356 15.9916 9.2983L15.1126 8.82153ZM14.0572 9.95062C13.6305 10.2144 13.1353 10.3519 12.5561 10.3519V11.3519C13.3022 11.3519 13.9831 11.1721 14.583 10.8012L14.0572 9.95062ZM12.5561 10.3519C11.9878 10.3519 11.4907 10.2151 11.0516 9.94852L10.5326 10.8033C11.1389 11.1714 11.8178 11.3519 12.5561 11.3519V10.3519ZM11.0571 9.95191C10.6075 9.67093 10.2504 9.29488 9.9825 8.81584L9.10974 9.30399C9.4578 9.92628 9.93135 10.4276 10.5271 10.7999L11.0571 9.95191ZM9.98729 8.82462C9.73059 8.3433 9.59812 7.79992 9.59812 7.18391H8.59812C8.59812 7.94924 8.76431 8.65652 9.10494 9.29521L9.98729 8.82462ZM9.59812 7.18391C9.59812 6.55723 9.73115 6.01551 9.98563 5.5463L9.1066 5.06953C8.76376 5.70165 8.59812 6.4106 8.59812 7.18391H9.59812ZM9.98423 5.54887C10.252 5.06197 10.6072 4.68911 11.0516 4.41931L10.5326 3.56452C9.93168 3.92938 9.45621 4.43386 9.10801 5.06695L9.98423 5.54887ZM11.0571 4.41591C11.4955 4.14194 11.9906 4.00191 12.5561 4.00191V3.00191C11.815 3.00191 11.1341 3.18856 10.5271 3.56791L11.0571 4.41591ZM12.5561 4.00191C13.1325 4.00191 13.6257 4.14266 14.0517 4.41374L14.5886 3.57008C13.9879 3.18783 13.3051 3.00191 12.5561 3.00191V4.00191ZM14.0606 4.41931C14.5036 4.68826 14.8528 5.05924 15.1109 5.54321L15.9933 5.07262C15.6541 4.43659 15.182 3.93024 14.5796 3.56452L14.0606 4.41931ZM15.1126 5.5463C15.3671 6.01551 15.5001 6.55723 15.5001 7.18391H16.5001C16.5001 6.4106 16.3345 5.70165 15.9916 5.06953L15.1126 5.5463ZM15.9401 7.18391C15.9401 6.50635 15.7988 5.88591 15.5021 5.33634L14.6222 5.81149C14.8294 6.19525 14.9401 6.64814 14.9401 7.18391H15.9401ZM15.5076 5.34682C15.2249 4.7923 14.8223 4.349 14.3027 4.0284L13.7776 4.87943C14.1353 5.10016 14.414 5.40353 14.6167 5.80101L15.5076 5.34682ZM14.3133 4.03511C13.7952 3.69724 13.2038 3.53391 12.5561 3.53391V4.53391C13.0285 4.53391 13.4264 4.65059 13.767 4.87272L14.3133 4.03511ZM12.5561 3.53391C11.9159 3.53391 11.3269 3.69813 10.8031 4.03245L11.3411 4.87537C11.6947 4.6497 12.095 4.53391 12.5561 4.53391V3.53391ZM10.8096 4.0284C10.2917 4.34796 9.88593 4.78897 9.59422 5.33997L10.478 5.80786C10.6903 5.40686 10.9752 5.1012 11.3347 4.87943L10.8096 4.0284ZM9.59616 5.33634C9.2994 5.88591 9.15812 6.50635 9.15812 7.18391H10.1581C10.1581 6.64814 10.2688 6.19525 10.4761 5.81149L9.59616 5.33634ZM9.15812 7.18391C9.15812 7.85375 9.30004 8.47219 9.59422 9.02786L10.478 8.55997C10.2682 8.16364 10.1581 7.70874 10.1581 7.18391H9.15812ZM9.59616 9.03149C9.88777 9.5715 10.2913 10.0087 10.8031 10.3354L11.3411 9.49245C10.9756 9.25912 10.6885 8.94967 10.4761 8.55634L9.59616 9.03149ZM10.8096 10.3394C11.3326 10.6621 11.9193 10.8199 12.5561 10.8199V9.81991C12.0916 9.81991 11.689 9.70702 11.3347 9.4884L10.8096 10.3394ZM12.5561 10.8199C13.2004 10.8199 13.7895 10.663 14.3068 10.3369L13.7735 9.49095C13.4321 9.70616 13.0318 9.81991 12.5561 9.81991V10.8199ZM14.3091 10.3354C14.8226 10.0077 15.2231 9.56819 15.5057 9.02459L14.6185 8.56324C14.4158 8.95298 14.135 9.26016 13.7711 9.49245L14.3091 10.3354ZM15.504 9.02786C15.7982 8.47219 15.9401 7.85375 15.9401 7.18391H14.9401C14.9401 7.70874 14.83 8.16364 14.6202 8.55997L15.504 9.02786ZM23.3596 3.80991L22.9755 4.13001L22.99 4.14743L23.0061 4.16347L23.3596 3.80991ZM22.6736 10.1239L23.0058 10.4976L23.0062 10.4972L22.6736 10.1239ZM18.6416 10.1239L18.3056 10.4943L18.3129 10.5006L18.6416 10.1239ZM17.9696 3.80991L17.6161 3.45636L17.6161 3.45636L17.9696 3.80991ZM18.3616 3.80991L17.9775 4.13001L17.992 4.14743L18.0081 4.16347L18.3616 3.80991ZM19.0336 9.70391L18.6888 10.066L18.6931 10.07L19.0336 9.70391ZM22.2816 9.70391L21.9411 9.3378L21.9368 9.34185L22.2816 9.70391ZM22.9536 3.80991L22.6001 3.45636L22.584 3.4724L22.5695 3.48982L22.9536 3.80991ZM23.1636 4.22591C23.15 4.22591 23.1185 4.22355 23.0787 4.20649C23.0369 4.1886 23.0014 4.16101 22.9755 4.13001L23.7437 3.48982C23.587 3.30175 23.3708 3.22591 23.1636 3.22591V4.22591ZM23.0061 4.16347C22.9942 4.15161 22.9768 4.12999 22.9631 4.09787C22.949 4.06518 22.9436 4.03281 22.9436 4.00591H23.9436C23.9436 3.78997 23.8566 3.59982 23.7132 3.45636L23.0061 4.16347ZM22.9436 4.00591V8.07991H23.9436V4.00591H22.9436ZM22.9436 8.07991C22.9436 8.8904 22.7168 9.41584 22.341 9.75058L23.0062 10.4972C23.6572 9.91732 23.9436 9.0801 23.9436 8.07991H22.9436ZM22.3415 9.75021C21.9499 10.0982 21.4064 10.2959 20.6576 10.2959V11.2959C21.5888 11.2959 22.3893 11.0456 23.0058 10.4976L22.3415 9.75021ZM20.6576 10.2959C19.9202 10.2959 19.3738 10.0992 18.9704 9.7472L18.3129 10.5006C18.9362 11.0446 19.7337 11.2959 20.6576 11.2959V10.2959ZM18.9776 9.75363C18.6095 9.4196 18.3856 8.89313 18.3856 8.07991H17.3856C17.3856 9.07737 17.6658 9.91356 18.3056 10.4942L18.9776 9.75363ZM18.3856 8.07991V4.00591H17.3856V8.07991H18.3856ZM18.3856 4.00591C18.3856 4.03281 18.3802 4.06518 18.3662 4.09787C18.3524 4.12999 18.335 4.15162 18.3232 4.16347L17.6161 3.45636C17.4726 3.59982 17.3856 3.78997 17.3856 4.00591H18.3856ZM18.3232 4.16347C18.3113 4.17532 18.2897 4.19272 18.2576 4.20649C18.2249 4.2205 18.1925 4.22591 18.1656 4.22591V3.22591C17.9497 3.22591 17.7595 3.3129 17.6161 3.45636L18.3232 4.16347ZM18.1656 4.22591C18.152 4.22591 18.1205 4.22355 18.0807 4.20649C18.0389 4.1886 18.0034 4.16101 17.9775 4.13001L18.7457 3.48982C18.589 3.30175 18.3728 3.22591 18.1656 3.22591V4.22591ZM18.0081 4.16347C17.9962 4.15162 17.9788 4.12999 17.9651 4.09787C17.951 4.06518 17.9456 4.03281 17.9456 4.00591H18.9456C18.9456 3.78997 18.8586 3.59982 18.7152 3.45636L18.0081 4.16347ZM17.9456 4.00591V8.07991H18.9456V4.00591H17.9456ZM17.9456 8.07991C17.9456 8.8816 18.1696 9.57146 18.6888 10.066L19.3785 9.34185C19.1137 9.0897 18.9456 8.69689 18.9456 8.07991H17.9456ZM18.6931 10.07C19.208 10.549 19.8821 10.7639 20.6576 10.7639V9.76391C20.0705 9.76391 19.6619 9.60545 19.3742 9.33782L18.6931 10.07ZM20.6576 10.7639C21.4398 10.7639 22.1178 10.5504 22.6265 10.066L21.9368 9.34185C21.6614 9.60411 21.2568 9.76391 20.6576 9.76391V10.7639ZM22.6222 10.07C23.153 9.57624 23.3836 8.88499 23.3836 8.07991H22.3836C22.3836 8.6935 22.2129 9.08492 21.9411 9.33782L22.6222 10.07ZM23.3836 8.07991V4.00591H22.3836V8.07991H23.3836ZM23.3836 4.00591C23.3836 4.02151 23.381 4.0438 23.372 4.06908C23.3629 4.09453 23.3501 4.11517 23.3377 4.13001L22.5695 3.48982C22.446 3.63803 22.3836 3.81738 22.3836 4.00591H23.3836ZM23.3072 4.16347C23.2898 4.18089 23.2649 4.19874 23.2338 4.21115C23.2034 4.22333 23.178 4.22591 23.1636 4.22591V3.22591C22.956 3.22591 22.756 3.30046 22.6001 3.45636L23.3072 4.16347ZM30.6883 4.10391L30.9562 3.68175L30.9562 3.68175L30.6883 4.10391ZM31.8363 5.37791L31.3921 5.60767L31.3971 5.6168L31.8363 5.37791ZM31.8363 9.04591L31.3953 8.8102L31.3922 8.8162L31.8363 9.04591ZM30.6743 10.3339L30.9422 10.7561L30.9443 10.7548L30.6743 10.3339ZM28.1263 10.6699L27.9682 11.1443L27.9775 11.1474L27.9869 11.1501L28.1263 10.6699ZM27.3423 10.2919L27.0576 10.7032L27.0687 10.7104L27.3423 10.2919ZM26.6703 9.67591L26.2812 9.99016L26.2886 9.99889L26.6703 9.67591ZM26.1523 8.84991L25.7859 8.50969L25.5532 8.76031L25.7024 9.06805L26.1523 8.84991ZM26.3343 8.65391H26.8343V7.38065L25.9679 8.31369L26.3343 8.65391ZM26.2503 13.4279L25.8968 13.0744L25.8807 13.0904L25.8662 13.1078L26.2503 13.4279ZM25.8583 13.4279L25.5048 13.7815L25.5048 13.7815L25.8583 13.4279ZM25.8443 3.72591L25.4908 3.37236L25.4747 3.3884L25.4602 3.40582L25.8443 3.72591ZM26.2503 3.72591L25.8662 4.04601L25.8807 4.06343L25.8968 4.07947L26.2503 3.72591ZM26.3343 5.71391L26.0973 6.15415L26.8343 6.55102V5.71391H26.3343ZM26.1523 5.61591L25.6847 5.43897L25.5297 5.84854L25.9153 6.05615L26.1523 5.61591ZM26.6423 4.71991L26.2476 4.41294L26.2476 4.41294L26.6423 4.71991ZM27.3143 4.10391L27.0479 3.6808L27.0479 3.6808L27.3143 4.10391ZM28.1263 3.75391L28.2512 4.23805L28.2512 4.23805L28.1263 3.75391ZM27.5803 4.56591L27.3119 4.14406L27.3075 4.14691L27.5803 4.56591ZM26.6283 5.64391L27.0718 5.87489L27.0737 5.87115L26.6283 5.64391ZM26.6283 8.79391L26.1811 9.01753L26.1829 9.02115L26.6283 8.79391ZM27.5803 9.87191L27.3075 10.2909L27.3119 10.2937L27.5803 9.87191ZM30.3803 9.87191L30.1119 9.45006L30.1075 9.45291L30.3803 9.87191ZM31.3463 8.79391L30.9027 8.56323L30.9009 8.56668L31.3463 8.79391ZM31.3463 5.64391L30.9009 5.87118L30.9046 5.87827L31.3463 5.64391ZM30.3803 4.56591L30.1075 4.98494L30.1119 4.98774L30.3803 4.56591ZM29.0223 4.14191C29.5614 4.14191 30.0222 4.27337 30.4204 4.52608L30.9562 3.68175C30.3838 3.31846 29.7339 3.14191 29.0223 3.14191V4.14191ZM30.4204 4.52608C30.8265 4.78377 31.1503 5.13999 31.3922 5.60763L32.2804 5.1482C31.9623 4.53317 31.5208 4.04006 30.9562 3.68175L30.4204 4.52608ZM31.3971 5.6168C31.6412 6.06573 31.7703 6.59284 31.7703 7.21191H32.7703C32.7703 6.44965 32.6101 5.75409 32.2755 5.13903L31.3971 5.6168ZM31.7703 7.21191C31.7703 7.82023 31.6418 8.34911 31.3953 8.81023L32.2773 9.2816C32.6095 8.66005 32.7703 7.96626 32.7703 7.21191H31.7703ZM31.3922 8.8162C31.1509 9.28267 30.8224 9.64487 30.4043 9.91307L30.9443 10.7548C31.5155 10.3883 31.9617 9.89183 32.2804 9.27563L31.3922 8.8162ZM30.4064 9.91175C30.007 10.1652 29.5505 10.2959 29.0223 10.2959V11.2959C29.7261 11.2959 30.371 11.1186 30.9422 10.7561L30.4064 9.91175ZM29.0223 10.2959C28.7604 10.2959 28.5087 10.2603 28.2657 10.1897L27.9869 11.1501C28.3225 11.2475 28.6682 11.2959 29.0223 11.2959V10.2959ZM28.2844 10.1956C28.0444 10.1156 27.822 10.0082 27.6159 9.87343L27.0687 10.7104C27.3479 10.893 27.6482 11.0376 27.9682 11.1443L28.2844 10.1956ZM27.6269 9.88082C27.423 9.73965 27.2311 9.56466 27.052 9.35294L26.2886 9.99889C26.5201 10.2725 26.7763 10.5082 27.0577 10.703L27.6269 9.88082ZM27.0593 9.36175C26.8894 9.15138 26.7365 8.90884 26.6022 8.63178L25.7024 9.06805C25.8667 9.40699 26.0592 9.71512 26.2813 9.99008L27.0593 9.36175ZM26.5187 9.19014L26.7007 8.99414L25.9679 8.31369L25.7859 8.50969L26.5187 9.19014ZM25.8343 8.65391V13.2319H26.8343V8.65391H25.8343ZM25.8343 13.2319C25.8343 13.205 25.8397 13.1726 25.8537 13.14C25.8675 13.1078 25.8849 13.0862 25.8968 13.0744L26.6039 13.7815C26.7473 13.638 26.8343 13.4479 26.8343 13.2319H25.8343ZM25.8662 13.1078C25.892 13.0768 25.9276 13.0492 25.9693 13.0313C26.0092 13.0143 26.0407 13.0119 26.0543 13.0119V14.0119C26.2614 14.0119 26.4777 13.9361 26.6344 13.748L25.8662 13.1078ZM26.0543 13.0119C26.0812 13.0119 26.1136 13.0173 26.1463 13.0313C26.1784 13.0451 26.2 13.0625 26.2119 13.0744L25.5048 13.7815C25.6482 13.9249 25.8384 14.0119 26.0543 14.0119V13.0119ZM26.2119 13.0744C26.2237 13.0862 26.2411 13.1078 26.2549 13.14C26.2689 13.1726 26.2743 13.205 26.2743 13.2319H25.2743C25.2743 13.4479 25.3613 13.638 25.5048 13.7815L26.2119 13.0744ZM26.2743 13.2319V3.92191H25.2743V13.2319H26.2743ZM26.2743 3.92191C26.2743 3.93751 26.2717 3.9598 26.2627 3.98508C26.2536 4.01053 26.2408 4.03117 26.2284 4.04601L25.4602 3.40582C25.3367 3.55403 25.2743 3.73338 25.2743 3.92191H26.2743ZM26.1979 4.07947C26.1804 4.09689 26.1555 4.11474 26.1245 4.12715C26.0941 4.13933 26.0687 4.14191 26.0543 4.14191V3.14191C25.8466 3.14191 25.6466 3.21646 25.4908 3.37236L26.1979 4.07947ZM26.0543 4.14191C26.0407 4.14191 26.0092 4.13955 25.9693 4.12249C25.9276 4.1046 25.892 4.07701 25.8662 4.04601L26.6344 3.40582C26.4777 3.21775 26.2614 3.14191 26.0543 3.14191V4.14191ZM25.8968 4.07947C25.8849 4.06762 25.8675 4.04599 25.8537 4.01387C25.8397 3.98118 25.8343 3.94881 25.8343 3.92191H26.8343C26.8343 3.70597 26.7473 3.51582 26.6039 3.37236L25.8968 4.07947ZM25.8343 3.92191V5.71391H26.8343V3.92191H25.8343ZM26.5714 5.27368L26.3894 5.17568L25.9153 6.05615L26.0973 6.15415L26.5714 5.27368ZM26.6199 5.79286C26.7356 5.48712 26.876 5.23382 27.037 5.02688L26.2476 4.41294C26.0166 4.71001 25.8303 5.05404 25.6847 5.43897L26.6199 5.79286ZM27.037 5.02688C27.1999 4.81744 27.3813 4.65257 27.5807 4.52703L27.0479 3.6808C26.7433 3.8726 26.4767 4.11839 26.2476 4.41294L27.037 5.02688ZM27.5807 4.52703C27.7888 4.39599 28.0118 4.29985 28.2512 4.23805L28.0014 3.26978C27.6622 3.35731 27.3438 3.49451 27.0479 3.6808L27.5807 4.52703ZM28.2512 4.23805C28.4985 4.17424 28.7552 4.14191 29.0223 4.14191V3.14191C28.6735 3.14191 28.3328 3.18426 28.0014 3.26978L28.2512 4.23805ZM28.9943 3.67391C28.3764 3.67391 27.8102 3.82698 27.3119 4.14408L27.8487 4.98774C28.1718 4.78218 28.5482 4.67391 28.9943 4.67391V3.67391ZM27.3075 4.14691C26.8276 4.45941 26.453 4.88724 26.1829 5.41668L27.0737 5.87115C27.2702 5.48592 27.5304 5.19508 27.8531 4.98491L27.3075 4.14691ZM26.1848 5.41295C25.9081 5.94421 25.7783 6.5488 25.7783 7.21191H26.7783C26.7783 6.68036 26.8818 6.23962 27.0718 5.87488L26.1848 5.41295ZM25.7783 7.21191C25.7783 7.8676 25.9089 8.47305 26.1811 9.01752L27.0755 8.57031C26.8811 8.18144 26.7783 7.73223 26.7783 7.21191H25.7783ZM26.1829 9.02115C26.453 9.55059 26.8276 9.97842 27.3075 10.2909L27.8531 9.45292C27.5304 9.24274 27.2702 8.9519 27.0737 8.56668L26.1829 9.02115ZM27.3119 10.2937C27.8102 10.6108 28.3764 10.7639 28.9943 10.7639V9.76391C28.5482 9.76391 28.1718 9.65565 27.8487 9.45008L27.3119 10.2937ZM28.9943 10.7639C29.6046 10.7639 30.1632 10.6099 30.6531 10.2909L30.1075 9.45291C29.7947 9.65657 29.4293 9.76391 28.9943 9.76391V10.7639ZM30.6487 10.2937C31.1389 9.98184 31.5201 9.55345 31.7917 9.02115L30.9009 8.56668C30.7058 8.94905 30.4431 9.23932 30.1119 9.45008L30.6487 10.2937ZM31.7899 9.02459C32.0738 8.47862 32.2103 7.87062 32.2103 7.21191H31.2103C31.2103 7.72921 31.1041 8.17587 30.9027 8.56324L31.7899 9.02459ZM32.2103 7.21191C32.2103 6.55341 32.0739 5.94836 31.788 5.40956L30.9046 5.87827C31.1041 6.25413 31.2103 6.69442 31.2103 7.21191H32.2103ZM31.7917 5.41668C31.5201 4.88438 31.1389 4.45599 30.6487 4.14408L30.1119 4.98774C30.4431 5.19851 30.7058 5.48878 30.9009 5.87115L31.7917 5.41668ZM30.6531 4.14691C30.1632 3.82791 29.6046 3.67391 28.9943 3.67391V4.67391C29.4293 4.67391 29.7947 4.78125 30.1075 4.98491L30.6531 4.14691ZM34.7012 10.6279L35.0547 10.9815L35.0547 10.9815L34.7012 10.6279ZM34.2952 10.6279L33.9111 10.948L33.9256 10.9654L33.9416 10.9815L34.2952 10.6279ZM34.7012 0.435914L34.3171 0.756007L34.3316 0.77343L34.3476 0.789468L34.7012 0.435914ZM34.2852 10.4319C34.2852 10.405 34.2906 10.3726 34.3046 10.34C34.3184 10.3078 34.3358 10.2862 34.3476 10.2744L35.0547 10.9815C35.1982 10.838 35.2852 10.6479 35.2852 10.4319H34.2852ZM34.3476 10.2744C34.3595 10.2625 34.3811 10.2451 34.4132 10.2313C34.4459 10.2173 34.4783 10.2119 34.5052 10.2119V11.2119C34.7211 11.2119 34.9113 11.1249 35.0547 10.9815L34.3476 10.2744ZM34.5052 10.2119C34.5195 10.2119 34.5449 10.2145 34.5754 10.2267C34.6064 10.2391 34.6313 10.2569 34.6487 10.2744L33.9416 10.9815C34.0975 11.1374 34.2975 11.2119 34.5052 11.2119V10.2119ZM34.6793 10.3078C34.6916 10.3227 34.7044 10.3433 34.7135 10.3687C34.7226 10.394 34.7252 10.4163 34.7252 10.4319H33.7252C33.7252 10.6204 33.7875 10.7998 33.9111 10.948L34.6793 10.3078ZM34.7252 10.4319V0.631914H33.7252V10.4319H34.7252ZM34.7252 0.631914C34.7252 0.658814 34.7197 0.691181 34.7057 0.723873C34.692 0.755987 34.6746 0.777616 34.6627 0.789468L33.9556 0.0823599C33.8122 0.225816 33.7252 0.41597 33.7252 0.631914H34.7252ZM34.6627 0.789468C34.6509 0.801319 34.6292 0.818723 34.5971 0.832487C34.5644 0.846497 34.5321 0.851914 34.5052 0.851914V-0.148086C34.2892 -0.148086 34.0991 -0.0610955 33.9556 0.0823599L34.6627 0.789468ZM34.5052 0.851914C34.4916 0.851914 34.46 0.849553 34.4202 0.832487C34.3785 0.814597 34.3429 0.78701 34.3171 0.756007L35.0853 0.115821C34.9285 -0.0722492 34.7123 -0.148086 34.5052 -0.148086V0.851914ZM34.3476 0.789468C34.3358 0.777616 34.3184 0.755987 34.3046 0.723873C34.2906 0.691181 34.2852 0.658814 34.2852 0.631914H35.2852C35.2852 0.41597 35.1982 0.225816 35.0547 0.0823599L34.3476 0.789468ZM34.2852 0.631914V10.4319H35.2852V0.631914H34.2852ZM38.3279 10.4039L38.0832 10.8399L38.0864 10.8417L38.3279 10.4039ZM37.0679 9.14391L36.6315 9.388L36.6333 9.39118L37.0679 9.14391ZM37.0539 5.20991L36.6175 4.96582L36.6144 4.97153L37.0539 5.20991ZM38.2299 3.94991L38.4896 4.37718L38.492 4.37574L38.2299 3.94991ZM40.9179 3.69791L40.7527 4.16996L40.7634 4.17343L40.9179 3.69791ZM41.9119 4.28591L41.5704 4.65105L41.5764 4.65673L41.5827 4.6622L41.9119 4.28591ZM42.6259 5.27991L42.1686 5.482L42.1715 5.48848L42.1745 5.49488L42.6259 5.27991ZM42.9339 6.69391H43.4339V6.68544L43.4336 6.67697L42.9339 6.69391ZM42.8499 6.90391L43.2035 7.25747L43.2171 7.24389L43.2296 7.22931L42.8499 6.90391ZM36.9419 6.98791L36.448 7.0659L36.5147 7.48791H36.9419V6.98791ZM36.8579 6.45591V5.95591H36.2728L36.364 6.5339L36.8579 6.45591ZM42.4999 6.45591L42.8344 6.82756L43.8029 5.95591H42.4999V6.45591ZM42.3599 6.58191H41.8599V7.7046L42.6944 6.95356L42.3599 6.58191ZM42.3599 6.32991H42.8599V6.30638L42.8577 6.28295L42.3599 6.32991ZM41.8839 5.08391L41.4892 5.39093L41.4946 5.39758L41.8839 5.08391ZM40.9319 4.32791L40.7174 4.77965L40.7267 4.78387L40.9319 4.32791ZM38.8879 4.25791L39.0713 4.72327L39.0832 4.7182L38.8879 4.25791ZM38.0339 4.83191L38.3811 5.1919L38.3875 5.18547L38.0339 4.83191ZM37.3899 5.79791L36.9303 5.60091L36.9265 5.61032L37.3899 5.79791ZM37.4879 8.73791L37.0355 8.95084L37.039 8.95799L37.4879 8.73791ZM38.5099 9.88591L38.2387 10.306L38.2426 10.3085L38.5099 9.88591ZM41.0859 10.1659L41.2581 10.6354L41.2649 10.6329L41.2716 10.6302L41.0859 10.1659ZM41.8419 9.73191L42.1523 10.1239L42.1523 10.1239L41.8419 9.73191ZM42.3879 9.15791L42.0142 8.82573L41.9929 8.84972L41.9748 8.87625L42.3879 9.15791ZM42.7939 9.11591L42.4098 9.43601L42.4243 9.45343L42.4404 9.46947L42.7939 9.11591ZM42.8079 9.45191L42.4174 9.13953L42.4127 9.14563L42.8079 9.45191ZM41.6879 10.4319L41.4268 10.0055L41.4229 10.0079L41.6879 10.4319ZM40.1899 10.3519C39.5631 10.3519 39.0275 10.2188 38.5695 9.96613L38.0864 10.8417C38.711 11.1863 39.4168 11.3519 40.1899 11.3519V10.3519ZM38.5727 9.96792C38.1217 9.71471 37.7666 9.36073 37.5025 8.89665L36.6333 9.39118C36.9853 10.0098 37.4702 10.4958 38.0832 10.8399L38.5727 9.96792ZM37.5043 8.89984C37.2446 8.43547 37.1059 7.87829 37.1059 7.21191H36.1059C36.1059 8.0202 36.2753 8.75103 36.6316 9.38799L37.5043 8.89984ZM37.1059 7.21191C37.1059 6.4906 37.2432 5.9096 37.4934 5.4483L36.6144 4.97153C36.2673 5.61156 36.1059 6.36523 36.1059 7.21191H37.1059ZM37.4903 5.45399C37.7619 4.96845 38.0967 4.61603 38.4896 4.37717L37.9702 3.52265C37.4112 3.86247 36.962 4.35005 36.6176 4.96584L37.4903 5.45399ZM38.492 4.37574C38.9029 4.1229 39.3261 4.00191 39.7699 4.00191V3.00191C39.1311 3.00191 38.5277 3.1796 37.9679 3.52408L38.492 4.37574ZM39.7699 4.00191C40.1052 4.00191 40.432 4.05759 40.7528 4.16984L41.0831 3.22598C40.6572 3.07691 40.2187 3.00191 39.7699 3.00191V4.00191ZM40.7634 4.17343C41.0664 4.2719 41.334 4.42995 41.5704 4.65105L42.2535 3.92078C41.9112 3.60054 41.5162 3.36659 41.0725 3.2224L40.7634 4.17343ZM41.5827 4.6622C41.8209 4.87064 42.0176 5.14027 42.1686 5.482L43.0833 5.07783C42.8796 4.61689 42.6003 4.22386 42.2412 3.90963L41.5827 4.6622ZM42.1745 5.49488C42.3248 5.81061 42.4173 6.21102 42.4342 6.71085L43.4336 6.67697C43.4133 6.07547 43.3003 5.53321 43.0774 5.06495L42.1745 5.49488ZM42.4339 6.69391C42.4339 6.66701 42.4393 6.64019 42.4487 6.61672C42.4577 6.5942 42.4676 6.58168 42.4703 6.57852L43.2296 7.22931C43.3507 7.08799 43.4339 6.90589 43.4339 6.69391H42.4339ZM42.4964 6.55036C42.5082 6.53851 42.5299 6.5211 42.562 6.50734C42.5947 6.49333 42.627 6.48791 42.6539 6.48791V7.48791C42.8699 7.48791 43.06 7.40092 43.2035 7.25747L42.4964 6.55036ZM42.6539 6.48791H36.9419V7.48791H42.6539V6.48791ZM37.4358 6.90993L37.3518 6.37793L36.364 6.5339L36.448 7.0659L37.4358 6.90993ZM36.8579 6.95591H42.4999V5.95591H36.8579V6.95591ZM42.1654 6.08427L42.0254 6.21027L42.6944 6.95356L42.8344 6.82756L42.1654 6.08427ZM42.8599 6.58191V6.32991H41.8599V6.58191H42.8599ZM42.8577 6.28295C42.8033 5.70587 42.6144 5.19367 42.2733 4.77025L41.4946 5.39758C41.6948 5.64615 41.8232 5.96462 41.8621 6.37687L42.8577 6.28295ZM42.2786 4.77694C41.9693 4.37922 41.5878 4.07477 41.1371 3.87195L40.7267 4.78387C41.0227 4.91706 41.2759 5.11661 41.4893 5.39088L42.2786 4.77694ZM41.1465 3.87627C40.7082 3.66808 40.2477 3.56191 39.7699 3.56191V4.56191C40.0948 4.56191 40.409 4.63308 40.7174 4.77955L41.1465 3.87627ZM39.7699 3.56191C39.4111 3.56191 39.0506 3.64576 38.6927 3.79762L39.0832 4.7182C39.3412 4.60873 39.5688 4.56191 39.7699 4.56191V3.56191ZM38.7047 3.79271C38.3258 3.94196 37.9846 4.17418 37.6804 4.47836L38.3875 5.18547C38.606 4.96698 38.8341 4.81653 39.0712 4.72312L38.7047 3.79271ZM37.6869 4.47199C37.3699 4.77762 37.1201 5.15823 36.9304 5.60095L37.8495 5.99487C37.9958 5.6536 38.1753 5.3902 38.381 5.19184L37.6869 4.47199ZM36.9265 5.61032C36.7387 6.07417 36.6519 6.59764 36.6519 7.16991H37.6519C37.6519 6.69686 37.7238 6.30566 37.8534 5.98551L36.9265 5.61032ZM36.6519 7.16991C36.6519 7.8067 36.7777 8.40287 37.0355 8.95081L37.9403 8.52502C37.7502 8.12096 37.6519 7.67179 37.6519 7.16991H36.6519ZM37.039 8.95799C37.3125 9.51606 37.7149 9.96764 38.2387 10.3059L38.7812 9.46589C38.409 9.22552 38.13 8.91177 37.9369 8.51784L37.039 8.95799ZM38.2426 10.3085C38.7962 10.6587 39.4539 10.8199 40.1899 10.8199V9.81991C39.6006 9.81991 39.1383 9.69181 38.7773 9.46337L38.2426 10.3085ZM40.1899 10.8199C40.5622 10.8199 40.9195 10.7595 41.2581 10.6354L40.9138 9.69648C40.6924 9.77766 40.4523 9.81991 40.1899 9.81991V10.8199ZM41.2716 10.6302C41.594 10.5012 41.8884 10.3329 42.1523 10.1239L41.5316 9.33989C41.3475 9.48564 41.1379 9.60661 40.9002 9.70168L41.2716 10.6302ZM42.1523 10.1239C42.4101 9.91982 42.6287 9.69239 42.801 9.43958L41.9748 8.87625C41.8672 9.0341 41.7218 9.18934 41.5316 9.33989L42.1523 10.1239ZM42.7616 9.4901C42.7689 9.48192 42.7619 9.49233 42.7374 9.50531C42.7101 9.51977 42.671 9.53191 42.6259 9.53191V8.53191C42.3552 8.53191 42.1501 8.67292 42.0142 8.82573L42.7616 9.4901ZM42.6259 9.53191C42.5845 9.53191 42.5378 9.52236 42.4933 9.50013C42.4503 9.47863 42.4235 9.45238 42.4098 9.43601L43.178 8.79582C43.0488 8.64071 42.858 8.53191 42.6259 8.53191V9.53191ZM42.4404 9.46947C42.4216 9.4507 42.4005 9.42262 42.3849 9.38522C42.3693 9.34772 42.3639 9.31213 42.3639 9.28391H43.3639C43.3639 9.08447 43.2868 8.90173 43.1475 8.76236L42.4404 9.46947ZM42.3639 9.28391C42.3639 9.26854 42.3662 9.24492 42.3756 9.2168C42.3851 9.18814 42.3998 9.16171 42.4175 9.13957L43.1984 9.76426C43.3134 9.62051 43.3639 9.4515 43.3639 9.28391H42.3639ZM42.4127 9.14563C42.1651 9.46511 41.8395 9.75285 41.4269 10.0055L41.949 10.8583C42.451 10.551 42.8721 10.1854 43.2031 9.7582L42.4127 9.14563ZM41.4229 10.0079C41.0579 10.2361 40.6511 10.3519 40.1899 10.3519V11.3519C40.8301 11.3519 41.422 11.1877 41.9529 10.8559L41.4229 10.0079ZM44.4552 10.5859L44.8499 10.2789L44.8499 10.2789L44.4552 10.5859ZM44.4552 9.64791L44.8315 9.97717L44.841 9.96629L44.8499 9.95488L44.4552 9.64791ZM45.0712 9.64791L44.6552 9.92526L44.6734 9.95252L44.6949 9.97717L45.0712 9.64791ZM45.0712 10.5859L44.6766 10.2789L44.6653 10.2934L44.6552 10.3086L45.0712 10.5859ZM44.7352 10.2119C44.7324 10.2119 44.7507 10.2115 44.7794 10.2245C44.8101 10.2383 44.8346 10.2592 44.8499 10.2789L44.0606 10.8929C44.2347 11.1168 44.4841 11.2119 44.7352 11.2119V10.2119ZM44.8499 10.2789C44.8516 10.2811 44.8534 10.2839 44.8551 10.287C44.8567 10.2901 44.8577 10.2927 44.8582 10.2943C44.8593 10.2977 44.8572 10.2935 44.8572 10.2779H43.8572C43.8572 10.4941 43.9176 10.709 44.0606 10.8929L44.8499 10.2789ZM44.8572 10.2779V9.95591H43.8572V10.2779H44.8572ZM44.8572 9.95591C44.8572 9.93147 44.8604 9.92569 44.8582 9.93252C44.857 9.93616 44.8546 9.94269 44.85 9.95101C44.8453 9.95942 44.8392 9.96841 44.8315 9.97717L44.0789 9.31866C43.9114 9.51011 43.8572 9.7432 43.8572 9.95591H44.8572ZM44.8499 9.95488C44.8346 9.97461 44.8101 9.99556 44.7794 10.0094C44.7507 10.0223 44.7324 10.0219 44.7352 10.0219V9.02191C44.4841 9.02191 44.2347 9.11701 44.0606 9.34094L44.8499 9.95488ZM44.7352 10.0219H44.7912V9.02191H44.7352V10.0219ZM44.7912 10.0219C44.8047 10.0219 44.7871 10.0243 44.754 10.0094C44.7163 9.99239 44.6801 9.96256 44.6552 9.92526L45.4873 9.37056C45.3116 9.10714 45.034 9.02191 44.7912 9.02191V10.0219ZM44.6949 9.97717C44.6873 9.96841 44.6811 9.95942 44.6765 9.95101C44.6719 9.94269 44.6694 9.93616 44.6683 9.93252C44.6661 9.92569 44.6692 9.93147 44.6692 9.95591H45.6692C45.6692 9.7432 45.615 9.51011 45.4475 9.31866L44.6949 9.97717ZM44.6692 9.95591V10.2779H45.6692V9.95591H44.6692ZM44.6692 10.2779C44.6692 10.2935 44.6672 10.2977 44.6683 10.2943C44.6688 10.2927 44.6698 10.2901 44.6714 10.287C44.6731 10.2839 44.6749 10.2811 44.6766 10.2789L45.4659 10.8929C45.6089 10.709 45.6692 10.4941 45.6692 10.2779H44.6692ZM44.6552 10.3086C44.6801 10.2713 44.7163 10.2414 44.754 10.2245C44.7871 10.2096 44.8047 10.2119 44.7912 10.2119V11.2119C45.034 11.2119 45.3116 11.1267 45.4873 10.8633L44.6552 10.3086ZM44.7912 10.2119H44.7352V11.2119H44.7912V10.2119Z" fill="black"/>
<defs>
<filter id="filter0_i_9_2" x="0.52832" y="0.352051" width="44.6406" height="17.1597" filterUnits="userSpaceOnUse" color-interpolation-filters="sRGB">
<feFlood flood-opacity="0" result="BackgroundImageFix"/>
<feBlend mode="normal" in="SourceGraphic" in2="BackgroundImageFix" result="shape"/>
<feColorMatrix in="SourceAlpha" type="matrix" values="0 0 0 0 0 0 0 0 0 0 0 0 0 0 0 0 0 0 127 0" result="hardAlpha"/>
<feOffset dy="4"/>
<feGaussianBlur stdDeviation="2"/>
<feComposite in2="hardAlpha" operator="arithmetic" k2="-1" k3="1"/>
<feColorMatrix type="matrix" values="0 0 0 0 0 0 0 0 0 0 0 0 0 0 0 0 0 0 0.25 0"/>
<feBlend mode="normal" in2="shape" result="effect1_innerShadow_9_2"/>
</filter>
</defs>
</svg>
